<mxfile host="Electron" agent="Mozilla/5.0 (Windows NT 10.0; Win64; x64) AppleWebKit/537.36 (KHTML, like Gecko) draw.io/28.0.6 Chrome/138.0.7204.100 Electron/37.2.3 Safari/537.36" version="28.0.6">
  <diagram name="Page-1" id="d8Wwy-tj9V3--X3jir_a">
    <mxGraphModel dx="2065" dy="875" grid="0" gridSize="10" guides="1" tooltips="1" connect="1" arrows="1" fold="1" page="0" pageScale="1" pageWidth="850" pageHeight="1100" math="0" shadow="0">
      <root>
        <mxCell id="0" />
        <mxCell id="1" parent="0" />
        <mxCell id="vS82APZ9zauvxHF9v7w2-13" value="&lt;p style=&quot;margin:0px;margin-top:4px;text-align:center;&quot;&gt;&lt;b&gt;ATM&lt;/b&gt;&lt;/p&gt;&lt;hr size=&quot;1&quot; style=&quot;border-style:solid;&quot;&gt;&lt;p style=&quot;margin:0px;margin-left:4px;&quot;&gt;+ AtmStatesObj&lt;/p&gt;&lt;hr size=&quot;1&quot; style=&quot;border-style:solid;&quot;&gt;&lt;p style=&quot;margin:0px;margin-left:4px;&quot;&gt;+ method(): Type&lt;/p&gt;" style="verticalAlign=top;align=left;overflow=fill;html=1;whiteSpace=wrap;" vertex="1" parent="1">
          <mxGeometry x="230" y="240" width="160" height="90" as="geometry" />
        </mxCell>
        <mxCell id="vS82APZ9zauvxHF9v7w2-14" value="Use" style="endArrow=open;endSize=12;dashed=1;html=1;rounded=0;exitX=1;exitY=0.5;exitDx=0;exitDy=0;entryX=0.026;entryY=0.571;entryDx=0;entryDy=0;entryPerimeter=0;" edge="1" parent="1" source="vS82APZ9zauvxHF9v7w2-13" target="vS82APZ9zauvxHF9v7w2-1">
          <mxGeometry width="160" relative="1" as="geometry">
            <mxPoint x="330" y="290" as="sourcePoint" />
            <mxPoint x="640" y="280" as="targetPoint" />
          </mxGeometry>
        </mxCell>
        <mxCell id="vS82APZ9zauvxHF9v7w2-21" value="" style="group" vertex="1" connectable="0" parent="1">
          <mxGeometry x="-100" y="440" width="330" height="250" as="geometry" />
        </mxCell>
        <mxCell id="vS82APZ9zauvxHF9v7w2-15" value="&lt;p style=&quot;margin:0px;margin-top:4px;text-align:center;&quot;&gt;&lt;b&gt;Card&lt;/b&gt;&lt;/p&gt;&lt;hr size=&quot;1&quot; style=&quot;border-style:solid;&quot;&gt;&lt;p style=&quot;margin:0px;margin-left:4px;&quot;&gt;+ cardNumber: INT&lt;/p&gt;&lt;p style=&quot;margin:0px;margin-left:4px;&quot;&gt;+ cardPin: INT&lt;/p&gt;&lt;p style=&quot;margin:0px;margin-left:4px;&quot;&gt;+ bankAccountObj&lt;/p&gt;&lt;p style=&quot;margin:0px;margin-left:4px;&quot;&gt;+ expiryDate: Date&lt;/p&gt;&lt;p style=&quot;margin:0px;margin-left:4px;&quot;&gt;&lt;br&gt;&lt;/p&gt;" style="verticalAlign=top;align=left;overflow=fill;html=1;whiteSpace=wrap;" vertex="1" parent="vS82APZ9zauvxHF9v7w2-21">
          <mxGeometry y="160" width="120" height="90" as="geometry" />
        </mxCell>
        <mxCell id="vS82APZ9zauvxHF9v7w2-16" value="&lt;p style=&quot;margin:0px;margin-top:4px;text-align:center;&quot;&gt;&lt;b&gt;User&lt;/b&gt;&lt;/p&gt;&lt;hr size=&quot;1&quot; style=&quot;border-style:solid;&quot;&gt;&lt;p style=&quot;margin:0px;margin-left:4px;&quot;&gt;+ Name: String&lt;/p&gt;&lt;p style=&quot;margin:0px;margin-left:4px;&quot;&gt;+ cardObj: Card&lt;/p&gt;&lt;p style=&quot;margin:0px;margin-left:4px;&quot;&gt;+ bankAccountObj&lt;/p&gt;" style="verticalAlign=top;align=left;overflow=fill;html=1;whiteSpace=wrap;" vertex="1" parent="vS82APZ9zauvxHF9v7w2-21">
          <mxGeometry x="30" width="120" height="80" as="geometry" />
        </mxCell>
        <mxCell id="vS82APZ9zauvxHF9v7w2-17" value="Use" style="endArrow=open;endSize=12;dashed=1;html=1;rounded=0;exitX=0.25;exitY=1;exitDx=0;exitDy=0;" edge="1" parent="vS82APZ9zauvxHF9v7w2-21" source="vS82APZ9zauvxHF9v7w2-16" target="vS82APZ9zauvxHF9v7w2-15">
          <mxGeometry width="160" relative="1" as="geometry">
            <mxPoint x="180" y="100" as="sourcePoint" />
            <mxPoint x="340" y="100" as="targetPoint" />
          </mxGeometry>
        </mxCell>
        <mxCell id="vS82APZ9zauvxHF9v7w2-18" value="&lt;p style=&quot;margin:0px;margin-top:4px;text-align:center;&quot;&gt;&lt;b&gt;BankAccount&lt;/b&gt;&lt;/p&gt;&lt;hr size=&quot;1&quot; style=&quot;border-style:solid;&quot;&gt;&lt;p style=&quot;margin:0px;margin-left:4px;&quot;&gt;+ accountNumber: INT&lt;/p&gt;&lt;p style=&quot;margin:0px;margin-left:4px;&quot;&gt;+ balance: double&lt;/p&gt;" style="verticalAlign=top;align=left;overflow=fill;html=1;whiteSpace=wrap;" vertex="1" parent="vS82APZ9zauvxHF9v7w2-21">
          <mxGeometry x="190" y="170" width="140" height="70" as="geometry" />
        </mxCell>
        <mxCell id="vS82APZ9zauvxHF9v7w2-19" value="Use" style="endArrow=open;endSize=12;dashed=1;html=1;rounded=0;exitX=0.992;exitY=0.613;exitDx=0;exitDy=0;entryX=0.5;entryY=0;entryDx=0;entryDy=0;exitPerimeter=0;" edge="1" parent="vS82APZ9zauvxHF9v7w2-21" source="vS82APZ9zauvxHF9v7w2-16" target="vS82APZ9zauvxHF9v7w2-18">
          <mxGeometry width="160" relative="1" as="geometry">
            <mxPoint x="230" y="160" as="sourcePoint" />
            <mxPoint x="390" y="160" as="targetPoint" />
            <Array as="points">
              <mxPoint x="260" y="50" />
            </Array>
          </mxGeometry>
        </mxCell>
        <mxCell id="vS82APZ9zauvxHF9v7w2-20" value="Use" style="endArrow=open;endSize=12;dashed=1;html=1;rounded=0;exitX=1.008;exitY=0.578;exitDx=0;exitDy=0;exitPerimeter=0;" edge="1" parent="vS82APZ9zauvxHF9v7w2-21" source="vS82APZ9zauvxHF9v7w2-15">
          <mxGeometry width="160" relative="1" as="geometry">
            <mxPoint x="190" y="290" as="sourcePoint" />
            <mxPoint x="190" y="213" as="targetPoint" />
          </mxGeometry>
        </mxCell>
        <mxCell id="vS82APZ9zauvxHF9v7w2-22" value="" style="group" vertex="1" connectable="0" parent="1">
          <mxGeometry x="430" y="200" width="640" height="340" as="geometry" />
        </mxCell>
        <mxCell id="vS82APZ9zauvxHF9v7w2-1" value="&lt;p style=&quot;margin:0px;margin-top:4px;text-align:center;&quot;&gt;&lt;i&gt;&amp;lt;&amp;lt;Interface&amp;gt;&amp;gt;&lt;/i&gt;&lt;br&gt;&lt;b&gt;AtmStates&lt;/b&gt;&lt;/p&gt;&lt;hr size=&quot;1&quot; style=&quot;border-style:solid;&quot;&gt;&lt;p style=&quot;margin:0px;margin-left:4px;&quot;&gt;&lt;/p&gt;&lt;p style=&quot;margin:0px;margin-left:4px;&quot;&gt;+ acceptCard(Card)&lt;br&gt;+ validatePin(Card, Pin)&lt;/p&gt;&lt;p style=&quot;margin:0px;margin-left:4px;&quot;&gt;+ withdrawCash(Card, amount)&lt;/p&gt;&lt;p style=&quot;margin:0px;margin-left:4px;&quot;&gt;+ checkBalance(Card)&lt;/p&gt;&lt;p style=&quot;margin:0px;margin-left:4px;&quot;&gt;+ changePin(Card, Pin)&lt;/p&gt;&lt;p style=&quot;margin:0px;margin-left:4px;&quot;&gt;+ cancel()&lt;/p&gt;" style="verticalAlign=top;align=left;overflow=fill;html=1;whiteSpace=wrap;" vertex="1" parent="vS82APZ9zauvxHF9v7w2-22">
          <mxGeometry x="210" width="190" height="140" as="geometry" />
        </mxCell>
        <mxCell id="vS82APZ9zauvxHF9v7w2-2" value="&lt;p style=&quot;margin:0px;margin-top:4px;text-align:center;&quot;&gt;&lt;b&gt;IdleState&lt;/b&gt;&lt;/p&gt;&lt;hr size=&quot;1&quot; style=&quot;border-style:solid;&quot;&gt;&lt;p style=&quot;margin:0px;margin-left:4px;&quot;&gt;+ method(): Type&lt;/p&gt;" style="verticalAlign=top;align=left;overflow=fill;html=1;whiteSpace=wrap;" vertex="1" parent="vS82APZ9zauvxHF9v7w2-22">
          <mxGeometry y="200" width="110" height="50" as="geometry" />
        </mxCell>
        <mxCell id="vS82APZ9zauvxHF9v7w2-4" value="&lt;p style=&quot;margin:0px;margin-top:4px;text-align:center;&quot;&gt;&lt;b&gt;HasCardState&lt;/b&gt;&lt;/p&gt;&lt;hr size=&quot;1&quot; style=&quot;border-style:solid;&quot;&gt;&lt;p style=&quot;margin:0px;margin-left:4px;&quot;&gt;+ method(): Type&lt;/p&gt;" style="verticalAlign=top;align=left;overflow=fill;html=1;whiteSpace=wrap;" vertex="1" parent="vS82APZ9zauvxHF9v7w2-22">
          <mxGeometry x="150" y="200" width="110" height="50" as="geometry" />
        </mxCell>
        <mxCell id="vS82APZ9zauvxHF9v7w2-5" value="&lt;p style=&quot;margin:0px;margin-top:4px;text-align:center;&quot;&gt;&lt;b&gt;SelectionState&lt;/b&gt;&lt;/p&gt;&lt;hr size=&quot;1&quot; style=&quot;border-style:solid;&quot;&gt;&lt;p style=&quot;margin:0px;margin-left:4px;&quot;&gt;+ method(): Type&lt;/p&gt;" style="verticalAlign=top;align=left;overflow=fill;html=1;whiteSpace=wrap;" vertex="1" parent="vS82APZ9zauvxHF9v7w2-22">
          <mxGeometry x="260" y="290" width="100" height="50" as="geometry" />
        </mxCell>
        <mxCell id="vS82APZ9zauvxHF9v7w2-6" value="&lt;p style=&quot;margin:0px;margin-top:4px;text-align:center;&quot;&gt;&lt;b&gt;CashWithdrawalState&lt;/b&gt;&lt;/p&gt;&lt;hr size=&quot;1&quot; style=&quot;border-style:solid;&quot;&gt;&lt;p style=&quot;margin:0px;margin-left:4px;&quot;&gt;+ method(): Type&lt;/p&gt;" style="verticalAlign=top;align=left;overflow=fill;html=1;whiteSpace=wrap;" vertex="1" parent="vS82APZ9zauvxHF9v7w2-22">
          <mxGeometry x="340" y="230" width="150" height="50" as="geometry" />
        </mxCell>
        <mxCell id="vS82APZ9zauvxHF9v7w2-7" value="&lt;p style=&quot;margin:0px;margin-top:4px;text-align:center;&quot;&gt;&lt;b&gt;CheckBalanceState&lt;/b&gt;&lt;/p&gt;&lt;hr size=&quot;1&quot; style=&quot;border-style:solid;&quot;&gt;&lt;p style=&quot;margin:0px;margin-left:4px;&quot;&gt;+ method(): Type&lt;/p&gt;" style="verticalAlign=top;align=left;overflow=fill;html=1;whiteSpace=wrap;" vertex="1" parent="vS82APZ9zauvxHF9v7w2-22">
          <mxGeometry x="500" y="170" width="140" height="50" as="geometry" />
        </mxCell>
        <mxCell id="vS82APZ9zauvxHF9v7w2-8" value="Extends" style="endArrow=block;endSize=16;endFill=0;html=1;rounded=0;exitX=0.5;exitY=0;exitDx=0;exitDy=0;entryX=0.163;entryY=0.993;entryDx=0;entryDy=0;entryPerimeter=0;" edge="1" parent="vS82APZ9zauvxHF9v7w2-22" source="vS82APZ9zauvxHF9v7w2-2" target="vS82APZ9zauvxHF9v7w2-1">
          <mxGeometry width="160" relative="1" as="geometry">
            <mxPoint x="330" y="200" as="sourcePoint" />
            <mxPoint x="490" y="200" as="targetPoint" />
          </mxGeometry>
        </mxCell>
        <mxCell id="vS82APZ9zauvxHF9v7w2-9" value="Extends" style="endArrow=block;endSize=16;endFill=0;html=1;rounded=0;exitX=0.5;exitY=0;exitDx=0;exitDy=0;entryX=0.321;entryY=1.029;entryDx=0;entryDy=0;entryPerimeter=0;" edge="1" parent="vS82APZ9zauvxHF9v7w2-22" source="vS82APZ9zauvxHF9v7w2-4" target="vS82APZ9zauvxHF9v7w2-1">
          <mxGeometry width="160" relative="1" as="geometry">
            <mxPoint x="250" y="251" as="sourcePoint" />
            <mxPoint x="436" y="190" as="targetPoint" />
          </mxGeometry>
        </mxCell>
        <mxCell id="vS82APZ9zauvxHF9v7w2-10" value="Extends" style="endArrow=block;endSize=16;endFill=0;html=1;rounded=0;exitX=0.4;exitY=0;exitDx=0;exitDy=0;entryX=0.5;entryY=1;entryDx=0;entryDy=0;exitPerimeter=0;" edge="1" parent="vS82APZ9zauvxHF9v7w2-22" source="vS82APZ9zauvxHF9v7w2-5" target="vS82APZ9zauvxHF9v7w2-1">
          <mxGeometry width="160" relative="1" as="geometry">
            <mxPoint x="320" y="231" as="sourcePoint" />
            <mxPoint x="506" y="170" as="targetPoint" />
          </mxGeometry>
        </mxCell>
        <mxCell id="vS82APZ9zauvxHF9v7w2-11" value="Extends" style="endArrow=block;endSize=16;endFill=0;html=1;rounded=0;exitX=0.5;exitY=0;exitDx=0;exitDy=0;entryX=0.75;entryY=1;entryDx=0;entryDy=0;" edge="1" parent="vS82APZ9zauvxHF9v7w2-22" source="vS82APZ9zauvxHF9v7w2-6" target="vS82APZ9zauvxHF9v7w2-1">
          <mxGeometry width="160" relative="1" as="geometry">
            <mxPoint x="280" y="351" as="sourcePoint" />
            <mxPoint x="466" y="290" as="targetPoint" />
          </mxGeometry>
        </mxCell>
        <mxCell id="vS82APZ9zauvxHF9v7w2-12" value="Extends" style="endArrow=block;endSize=16;endFill=0;html=1;rounded=0;exitX=0.5;exitY=0;exitDx=0;exitDy=0;entryX=0.953;entryY=1.021;entryDx=0;entryDy=0;entryPerimeter=0;" edge="1" parent="vS82APZ9zauvxHF9v7w2-22" source="vS82APZ9zauvxHF9v7w2-7" target="vS82APZ9zauvxHF9v7w2-1">
          <mxGeometry width="160" relative="1" as="geometry">
            <mxPoint x="450" y="381" as="sourcePoint" />
            <mxPoint x="636" y="320" as="targetPoint" />
          </mxGeometry>
        </mxCell>
        <mxCell id="vS82APZ9zauvxHF9v7w2-23" value="&lt;p style=&quot;margin:0px;margin-top:4px;text-align:center;&quot;&gt;&lt;b&gt;AtmManager&lt;/b&gt;&lt;/p&gt;&lt;hr size=&quot;1&quot; style=&quot;border-style:solid;&quot;&gt;&lt;p style=&quot;margin:0px;margin-left:4px;&quot;&gt;+ AtmObj&lt;/p&gt;&lt;p style=&quot;margin:0px;margin-left:4px;&quot;&gt;+ UserObj&lt;/p&gt;" style="verticalAlign=top;align=left;overflow=fill;html=1;whiteSpace=wrap;" vertex="1" parent="1">
          <mxGeometry x="-50" y="250" width="90" height="70" as="geometry" />
        </mxCell>
        <mxCell id="vS82APZ9zauvxHF9v7w2-24" value="Use" style="endArrow=open;endSize=12;dashed=1;html=1;rounded=0;exitX=0.367;exitY=0.986;exitDx=0;exitDy=0;exitPerimeter=0;" edge="1" parent="1" source="vS82APZ9zauvxHF9v7w2-23" target="vS82APZ9zauvxHF9v7w2-16">
          <mxGeometry width="160" relative="1" as="geometry">
            <mxPoint x="-110" y="380" as="sourcePoint" />
            <mxPoint x="50" y="380" as="targetPoint" />
          </mxGeometry>
        </mxCell>
        <mxCell id="vS82APZ9zauvxHF9v7w2-25" value="Use" style="endArrow=open;endSize=12;dashed=1;html=1;rounded=0;exitX=1;exitY=0.5;exitDx=0;exitDy=0;entryX=0;entryY=0.5;entryDx=0;entryDy=0;" edge="1" parent="1" source="vS82APZ9zauvxHF9v7w2-23" target="vS82APZ9zauvxHF9v7w2-13">
          <mxGeometry width="160" relative="1" as="geometry">
            <mxPoint x="30" y="400" as="sourcePoint" />
            <mxPoint x="190" y="400" as="targetPoint" />
          </mxGeometry>
        </mxCell>
      </root>
    </mxGraphModel>
  </diagram>
</mxfile>
